<?xml version="1.0" encoding="utf-8"?>
<!-- Generator: Adobe Illustrator 22.0.1, SVG Export Plug-In . SVG Version: 6.00 Build 0)  -->
<svg version="1.1" id="Layer_1" xmlns="http://www.w3.org/2000/svg" xmlns:xlink="http://www.w3.org/1999/xlink" x="0px" y="0px"
	 viewBox="0 0 680 265" style="enable-background:new 0 0 680 265;" xml:space="preserve">
<style type="text/css">
	.st0{fill:#FFEC65;stroke:#FFEC65;stroke-miterlimit:10;}
	.st1{fill:#00FBE0;stroke:#00FBE0;stroke-miterlimit:10;}
</style>
<path class="st0" d="M330.9,90.2c0,13.4-0.3,22.9-0.9,28.4c-0.7,5.6-2.6,10.6-5.9,15.3c-3.3,4.7-7.8,8.2-13.5,10.6 c-5.7,2.5-12.3,3.7-19.8,3.7c-7.1,0-13.6-1.1-19.2-3.5c-5.7-2.4-10.3-5.8-13.7-10.5c-3.4-4.7-5.5-9.8-6.2-15.2 c-0.7-5.5-0.9-15.1-0.9-28.8V67.4c0-13.4,0.3-22.9,0.9-28.4c0.7-5.6,2.6-10.6,5.9-15.3c3.3-4.7,7.8-8.2,13.5-10.6s12.3-3.7,19.8-3.7 c7.1,0,13.6,1.1,19.2,3.5c5.7,2.4,10.3,5.8,13.7,10.5c3.4,4.7,5.5,9.8,6.2,15.2c0.7,5.5,0.9,15.1,0.9,28.8L330.9,90.2L330.9,90.2z  M296.2,46.4c0-6.2-0.4-10.2-1-11.9c-0.7-1.7-2.1-2.6-4.3-2.6c-1.8,0-3.2,0.7-4.2,2.1c-0.9,1.4-1.4,5.5-1.4,12.3v62.2 c0,7.7,0.3,12.5,0.9,14.3s2.1,2.8,4.4,2.8c2.4,0,3.9-1,4.6-3.1c0.7-2.1,0.9-7,0.9-14.9L296.2,46.4L296.2,46.4z"/>
<path class="st0" d="M432.1,12.2h57.8v26.7h-23.2v25.3h21.7v25.4h-21.7v29.4h25.5v26.7H432L432.1,12.2L432.1,12.2z"/>
<path class="st1" d="M90,132.7v24.1H71.4v96.5H40v-96.5H21.4v-24.1H90z"/>
<path class="st1" d="M169.2,132.7v120.6h-31.3v-50.6h-9.4v50.6H97.1V132.7h31.3v43.1h9.4v-43.1H169.2z"/>
<path class="st1" d="M181.8,132.7h52.3v24.1h-20.9v22.9h19.6v23h-19.6v26.5h23v24.1h-54.3L181.8,132.7L181.8,132.7z"/>
<path class="st1" d="M368.9,132.7v120.6h-27.5v-81.4l-10.9,81.4H311l-11.5-79.6v79.6h-27.5V132.7h40.6c1.2,7.2,2.5,15.8,3.7,25.6 l4.5,30.7l7.2-56.3H368.9z"/>
<path class="st1" d="M452.8,132.7v80.7c0,9.1-0.3,15.6-0.9,19.3c-0.6,3.7-2.4,7.5-5.3,11.4c-2.9,3.9-6.8,6.8-11.6,8.8 c-4.7,2-10.4,3-16.9,3c-7.2,0-13.6-1.2-19.1-3.6c-5.5-2.4-9.6-5.5-12.3-9.3s-4.4-7.9-4.8-12.1c-0.5-4.3-0.8-13.2-0.8-26.8v-71.3 h31.3v90.4c0,5.2,0.3,8.6,0.9,10.1c0.6,1.4,1.7,2.2,3.4,2.2c2,0,3.2-0.8,3.8-2.4s0.9-5.4,0.9-11.4v-88.9L452.8,132.7L452.8,132.7z" />
<path class="st1" d="M531.4,169.3h-29.2v-8.9c0-4.2-0.4-6.8-1.1-8c-0.8-1.1-2-1.7-3.7-1.7c-1.9,0-3.3,0.8-4.3,2.3 c-0.9,1.5-1.4,3.9-1.4,7c0,4,0.6,7,1.6,9.1c1,2,4,4.5,8.8,7.4c14,8.3,22.8,15.1,26.4,20.4c3.6,5.3,5.4,13.9,5.4,25.7 c0,8.5-1,14.9-3,19c-2,4.1-5.9,7.5-11.7,10.3c-5.8,2.8-12.4,4.2-20.1,4.2c-8.4,0-15.6-1.6-21.5-4.7c-5.9-3.1-9.8-7.2-11.7-12.2 c-1.8-4.9-2.8-11.9-2.8-20.9v-7.9h29.2V225c0,4.6,0.4,7.4,1.2,8.7c0.9,1.3,2.3,1.9,4.4,1.9s3.6-0.9,4.7-2.5c1-1.6,1.5-4.1,1.5-7.3 c0-7.1-0.9-11.8-2.9-14c-2-2.2-6.8-5.8-14.6-10.9c-7.8-5.1-12.9-8.9-15.5-11.2c-2.6-2.4-4.7-5.6-6.3-9.7c-1.7-4.1-2.5-9.4-2.5-15.8 c0-9.2,1.1-16,3.5-20.2s6.2-7.6,11.4-10c5.2-2.4,11.6-3.6,19.1-3.6c8.2,0,15.1,1.3,20.8,4c5.7,2.7,9.5,6,11.4,10 c1.9,4,2.8,10.8,2.8,20.3L531.4,169.3L531.4,169.3z"/>
<path class="st1" d="M575.2,132.7v120.6h-31.3V132.7H575.2z"/>
<path class="st1" d="M661,185.2h-31.3v-21c0-6.1-0.4-9.9-1-11.4c-0.7-1.5-2.2-2.3-4.5-2.3c-2.6,0-4.2,0.9-4.9,2.8 c-0.7,1.8-1,5.8-1,11.9v56c0,5.9,0.4,9.7,1,11.5c0.7,1.8,2.3,2.7,4.7,2.7s3.9-0.9,4.6-2.7c0.8-1.8,1-6,1-12.6v-15.2h31.3v4.7 c0,12.4-0.9,21.4-2.7,26.6c-1.8,5.2-5.7,9.8-11.7,13.8c-6.1,3.9-13.5,5.9-22.3,5.9c-9.2,0-16.7-1.7-22.7-5c-6-3.3-9.9-8-11.9-13.8 c-1.9-5.9-2.9-14.7-2.9-26.6v-35.2c0-8.6,0.3-15.2,0.9-19.6c0.6-4.4,2.4-8.5,5.3-12.5c2.9-4,7-7.2,12.3-9.5c5.2-2.3,11.3-3.4,18-3.4 c9.2,0,16.9,1.8,22.9,5.3c6,3.6,10,8,11.9,13.4c1.9,5.3,2.8,13.6,2.8,24.9v11.5H661z"/>
<path class="st0" d="M224.8,12.2v106.6h21v26.7H190V12.2H224.8z"/>
<path class="st0" d="M426.2,12.2l-17.7,133.3h-52.6L335.9,12.2h36.6c4.3,36.8,7.3,67.8,9.1,93.2c1.8-25.6,3.7-48.4,5.7-68.4 l2.4-24.8C389.7,12.2,426.2,12.2,426.2,12.2z"/>
</svg>
